<?xml version="1.0" standalone="no"?>
<!DOCTYPE svg PUBLIC "-//W3C//DTD SVG 20010904//EN"
 "http://www.w3.org/TR/2001/REC-SVG-20010904/DTD/svg10.dtd">
<svg version="1.0" xmlns="http://www.w3.org/2000/svg"
 width="4392.000000pt" height="2160.000000pt" viewBox="0 0 4392.000000 2160.000000"
 preserveAspectRatio="xMidYMid meet">
<metadata>
Created by potrace 1.13, written by Peter Selinger 2001-2015
</metadata>
<g transform="translate(0.000000,2160.000000) scale(0.100000,-0.100000)"
fill="#000000" stroke="none">
<path d="M16440 14675 c0 -3382 2 -4007 14 -3995 11 12 1288 1438 1347 1505
18 20 0 109 -666 3255 -377 1778 -687 3236 -690 3238 -3 3 -5 -1799 -5 -4003z"/>
<path d="M5264 14940 c-97 -20 -177 -69 -229 -139 -127 -174 -120 -447 16
-596 149 -162 424 -179 634 -39 l55 36 0 159 0 159 -185 0 -185 0 0 -50 0 -50
130 0 130 0 0 -79 c0 -76 -1 -81 -28 -100 -63 -44 -133 -65 -227 -65 -79 -1
-97 2 -147 27 -102 50 -152 131 -164 267 -11 114 28 241 93 302 65 62 193 92
292 68 70 -16 124 -58 151 -117 13 -26 24 -49 25 -51 2 -2 23 2 49 9 54 13 56
22 22 94 -28 61 -96 123 -162 149 -56 21 -206 30 -270 16z"/>
<path d="M6820 14788 l0 -152 -27 27 c-83 79 -227 73 -313 -13 -59 -59 -84
-135 -84 -255 -1 -89 2 -106 27 -160 16 -33 38 -71 50 -83 60 -64 174 -98 249
-73 20 6 52 28 72 48 l36 36 0 -41 0 -42 50 0 50 0 0 430 0 430 -55 0 -55 0 0
-152z m-103 -179 c77 -29 112 -98 113 -219 0 -69 -4 -94 -22 -130 -61 -120
-224 -116 -284 7 -22 46 -30 163 -15 220 27 100 121 155 208 122z"/>
<path d="M10700 14510 l0 -430 55 0 55 0 0 128 0 128 34 33 34 33 57 -88 c31
-49 78 -122 103 -161 l47 -73 63 0 c34 0 62 2 62 5 0 3 -54 87 -121 186 -66
99 -123 188 -126 197 -5 12 26 47 113 129 l119 113 -71 0 -71 0 -122 -125
-121 -125 0 240 0 240 -55 0 -55 0 0 -430z"/>
<path d="M8268 14706 c-102 -37 -151 -117 -127 -208 21 -80 73 -113 251 -158
111 -29 130 -41 126 -87 -4 -52 -41 -76 -121 -81 -46 -2 -71 2 -97 15 -30 16
-72 63 -82 94 -2 7 -21 8 -51 4 -54 -8 -57 -17 -28 -80 44 -97 136 -142 268
-132 139 10 223 84 223 196 0 113 -49 149 -280 206 -86 22 -110 38 -110 75 0
39 36 62 105 68 73 6 122 -12 148 -55 19 -34 21 -35 66 -28 25 4 48 9 50 11
10 10 -34 96 -60 118 -60 51 -199 71 -281 42z"/>
<path d="M9249 14711 c-37 -12 -71 -31 -96 -54 l-23 -20 0 36 0 37 -50 0 -50
0 0 -315 0 -315 55 0 55 0 0 213 c0 246 5 266 80 305 57 28 108 28 151 -1 52
-35 58 -66 58 -304 l1 -213 56 0 57 0 -5 248 c-4 228 -6 250 -26 289 -23 45
-58 73 -111 91 -38 13 -113 14 -152 3z"/>
<path d="M11449 14704 c-63 -19 -131 -81 -160 -146 -20 -45 -24 -69 -24 -163
0 -94 4 -118 24 -163 77 -172 314 -217 459 -87 71 64 87 110 87 255 0 106 -2
119 -27 166 -67 127 -213 183 -359 138z m168 -99 c82 -35 112 -91 113 -210 0
-64 -5 -90 -22 -125 -50 -98 -168 -128 -259 -67 -48 32 -73 89 -77 174 -6 115
28 190 102 224 50 23 95 24 143 4z"/>
<path d="M12170 14704 c-19 -8 -52 -31 -72 -52 l-38 -36 0 47 0 47 -45 0 -45
0 0 -315 0 -315 54 0 55 0 3 223 c3 216 4 223 27 256 43 59 134 80 184 41 40
-32 47 -77 47 -307 l0 -213 55 0 55 0 0 219 c0 210 1 219 23 252 31 47 81 71
135 66 52 -6 78 -28 92 -76 5 -20 10 -132 10 -248 l0 -213 51 0 50 0 -3 263
c-3 241 -5 265 -23 295 -28 46 -74 72 -140 79 -72 8 -132 -15 -181 -70 -22
-24 -39 -36 -42 -29 -9 27 -58 75 -89 88 -42 18 -119 17 -163 -2z"/>
<path d="M13165 14702 c-23 -11 -53 -34 -68 -51 l-27 -33 0 46 0 46 -50 0 -50
0 0 -435 0 -435 55 0 55 0 0 155 0 154 28 -26 c56 -53 130 -66 213 -38 66 23
114 67 148 138 79 161 35 383 -91 460 -62 39 -154 47 -213 19z m128 -96 c42
-17 83 -66 97 -114 25 -90 5 -219 -43 -271 -74 -80 -202 -61 -254 38 -30 58
-33 194 -4 256 40 87 124 125 204 91z"/>
<path d="M13778 14706 c-71 -19 -115 -54 -145 -114 -14 -29 -24 -54 -22 -57 3
-2 27 -7 54 -10 49 -7 50 -6 64 25 18 43 50 61 118 67 111 10 167 -21 180
-100 5 -34 4 -36 -33 -46 -22 -6 -88 -18 -149 -27 -120 -18 -169 -37 -208 -83
-54 -64 -58 -141 -12 -212 61 -93 244 -105 364 -23 20 13 39 24 42 24 4 0 10
-16 13 -35 l7 -35 56 0 c53 0 55 1 48 23 -14 47 -24 178 -24 324 -1 162 -7
192 -49 236 -50 52 -194 73 -304 43z m247 -378 c-9 -66 -17 -81 -58 -111 -47
-36 -102 -50 -160 -44 -66 8 -99 38 -95 86 5 52 36 68 172 91 66 11 122 23
125 25 16 17 22 -1 16 -47z"/>
<path d="M14408 14706 c-102 -37 -151 -117 -127 -208 21 -80 73 -113 251 -158
111 -29 130 -41 126 -87 -4 -52 -41 -76 -121 -81 -46 -2 -71 2 -97 15 -30 16
-72 63 -82 94 -2 7 -21 8 -51 4 -54 -8 -57 -17 -28 -80 44 -97 136 -142 268
-132 139 10 223 84 223 196 0 113 -49 149 -280 206 -86 22 -110 38 -110 75 0
39 36 62 105 68 73 6 122 -12 148 -55 19 -34 21 -35 66 -28 25 4 48 9 50 11
10 10 -34 96 -60 118 -60 51 -199 71 -281 42z"/>
<path d="M15008 14706 c-102 -37 -151 -117 -127 -208 21 -80 73 -113 251 -158
111 -29 130 -41 126 -87 -4 -52 -41 -76 -121 -81 -46 -2 -71 2 -97 15 -30 16
-72 63 -82 94 -2 7 -21 8 -51 4 -54 -8 -57 -17 -28 -80 44 -97 136 -142 268
-132 139 10 223 84 223 196 0 113 -49 149 -280 206 -86 22 -110 38 -110 75 0
39 36 62 105 68 73 6 122 -12 148 -55 19 -34 21 -35 66 -28 25 4 48 9 50 11
10 10 -34 96 -60 118 -60 51 -199 71 -281 42z"/>
<path d="M5900 14395 l0 -315 55 0 55 0 0 315 0 315 -55 0 -55 0 0 -315z"/>
<path d="M6160 14395 l0 -315 55 0 55 0 0 315 0 315 -55 0 -55 0 0 -315z"/>
<path d="M8760 14395 l0 -315 55 0 55 0 0 315 0 315 -55 0 -55 0 0 -315z"/>
<path d="M9700 14462 c0 -237 1 -250 23 -292 28 -56 85 -90 165 -97 73 -7 149
23 192 76 l30 36 0 -53 0 -52 45 0 45 0 0 315 0 315 -55 0 -55 0 0 -213 c0
-245 -5 -265 -80 -304 -53 -28 -105 -29 -147 -3 -54 33 -57 45 -61 293 l-4
227 -49 0 -49 0 0 -248z"/>
<path d="M7390 14390 l0 -50 160 0 160 0 0 50 0 50 -160 0 -160 0 0 -50z"/>
<path d="M6655 13257 c-37 -17 -55 -54 -55 -112 0 -43 -1 -45 -30 -45 -28 0
-30 -3 -30 -35 0 -32 2 -35 30 -35 l30 0 0 -175 0 -175 35 0 35 0 0 175 0 175
40 0 c39 0 40 1 40 35 0 34 -1 35 -40 35 -39 0 -40 1 -40 34 0 44 22 66 65 66
27 0 34 5 39 26 4 15 5 29 2 31 -12 13 -94 12 -121 0z"/>
<path d="M4342 13233 c-42 -105 -212 -546 -212 -549 0 -2 17 -4 39 -4 l39 0
32 90 33 91 120 -3 120 -3 33 -85 32 -85 41 -3 c23 -2 41 0 41 5 0 4 -52 135
-117 290 l-116 283 -37 0 c-32 0 -39 -4 -48 -27z m93 -173 c21 -58 40 -111 42
-117 4 -10 -17 -13 -87 -13 -84 0 -91 2 -85 18 4 9 24 65 44 123 20 59 39 104
42 100 3 -3 23 -53 44 -111z"/>
<path d="M6220 12970 l0 -290 35 0 35 0 0 290 0 290 -35 0 -35 0 0 -290z"/>
<path d="M7690 13154 l0 -106 -30 26 c-58 48 -151 43 -203 -11 -63 -66 -77
-203 -29 -294 51 -98 164 -129 233 -63 l29 28 0 -27 c0 -24 4 -27 35 -27 l35
0 0 290 0 290 -35 0 -35 0 0 -106z m-60 -129 c47 -24 63 -66 58 -153 -3 -69
-6 -76 -36 -103 -37 -34 -79 -38 -123 -12 -38 23 -59 69 -59 132 0 121 72 182
160 136z"/>
<path d="M9430 13154 l0 -106 -30 26 c-58 48 -151 43 -203 -11 -63 -66 -77
-203 -29 -294 51 -98 164 -129 233 -63 l29 28 0 -27 c0 -24 4 -27 35 -27 l35
0 0 290 0 290 -35 0 -35 0 0 -106z m-60 -129 c47 -24 63 -66 58 -153 -3 -69
-6 -76 -36 -103 -37 -34 -79 -38 -123 -12 -38 23 -59 69 -59 132 0 121 72 182
160 136z"/>
<path d="M4986 13100 c-68 -21 -116 -105 -116 -204 0 -74 17 -122 56 -166 61
-68 149 -78 206 -24 l28 28 0 -107 0 -107 35 0 35 0 0 290 0 290 -35 0 c-31 0
-35 -3 -35 -27 l0 -26 -22 21 c-42 39 -92 49 -152 32z m113 -75 c44 -22 64
-75 59 -157 -3 -64 -7 -73 -36 -99 -80 -71 -182 -2 -182 124 0 63 18 106 54
128 37 23 67 24 105 4z"/>
<path d="M5895 13103 c-53 -14 -87 -38 -106 -75 -11 -22 -19 -41 -17 -43 2 -1
17 -5 34 -8 26 -5 33 -2 44 17 27 52 133 64 175 21 25 -24 33 -59 16 -69 -4
-3 -49 -12 -99 -20 -106 -17 -146 -35 -167 -76 -26 -50 -19 -95 19 -138 33
-36 37 -37 103 -37 53 0 77 5 106 23 47 27 57 28 57 2 0 -17 7 -20 40 -20 38
0 39 1 30 26 -6 14 -10 86 -10 160 0 147 -11 191 -53 218 -25 17 -136 29 -172
19z m155 -248 c0 -92 -127 -151 -197 -91 -24 21 -26 26 -15 50 13 30 18 31
205 65 4 0 7 -10 7 -24z"/>
<path d="M7086 13096 c-53 -20 -92 -60 -111 -114 -46 -136 12 -275 126 -302
95 -23 183 9 220 79 10 19 18 36 16 37 -1 1 -19 4 -39 8 -30 5 -37 3 -42 -12
-8 -25 -58 -52 -98 -52 -45 0 -96 33 -114 75 -8 19 -14 39 -14 45 0 6 55 10
155 10 l155 0 0 43 c0 60 -40 139 -83 166 -46 28 -120 36 -171 17z m149 -87
c13 -13 26 -34 30 -46 6 -23 6 -23 -109 -23 -124 0 -131 3 -106 50 29 54 140
65 185 19z"/>
<path d="M8186 13100 c-72 -23 -116 -99 -116 -205 0 -82 22 -138 68 -177 54
-45 144 -48 197 -7 l25 20 0 -35 c0 -51 -15 -83 -49 -101 -55 -28 -144 -13
-156 27 -4 10 -15 18 -25 18 -10 0 -25 3 -34 6 -21 8 -21 -27 -1 -66 23 -45
69 -64 150 -65 82 0 128 21 160 75 18 32 20 55 23 273 l3 237 -30 0 c-24 0
-31 -4 -31 -20 0 -25 -4 -25 -39 1 -32 24 -101 33 -145 19z m134 -87 c89 -80
42 -263 -67 -263 -73 0 -113 52 -113 145 0 93 40 145 112 145 27 0 46 -8 68
-27z"/>
<path d="M9706 13096 c-53 -20 -92 -60 -111 -114 -46 -136 12 -275 126 -302
95 -23 183 9 220 79 10 19 18 36 16 37 -1 1 -19 4 -39 8 -30 5 -37 3 -42 -12
-8 -25 -58 -52 -98 -52 -45 0 -96 33 -114 75 -8 19 -14 39 -14 45 0 6 55 10
155 10 l155 0 0 43 c0 60 -40 139 -83 166 -46 28 -120 36 -171 17z m149 -87
c13 -13 26 -34 30 -46 6 -23 6 -23 -109 -23 -124 0 -131 3 -106 50 29 54 140
65 185 19z"/>
<path d="M10998 13100 c-84 -25 -128 -97 -128 -210 0 -90 25 -150 79 -186 68
-44 174 -41 236 8 84 66 89 279 7 351 -44 40 -131 56 -194 37z m122 -76 c42
-25 60 -64 60 -129 0 -68 -20 -115 -59 -138 -59 -35 -137 -12 -166 49 -19 41
-19 127 0 168 29 61 106 84 165 50z"/>
<path d="M11881 13084 c-30 -25 -31 -25 -31 -5 0 17 -6 21 -35 21 l-35 0 0
-210 0 -210 35 0 35 0 0 123 c1 193 23 245 100 233 33 -5 37 -3 47 24 10 27 9
29 -20 39 -45 16 -62 14 -96 -15z"/>
<path d="M12372 13097 c-80 -25 -130 -126 -118 -239 7 -71 24 -105 70 -146 86
-75 242 -39 276 64 14 41 15 40 -27 49 -27 5 -33 3 -33 -10 0 -9 -13 -30 -29
-46 -64 -64 -169 -19 -186 79 -18 106 34 192 115 192 35 0 48 -6 75 -34 25
-27 37 -33 58 -29 36 7 35 33 -4 77 -45 52 -120 68 -197 43z"/>
<path d="M12778 13100 c-84 -25 -128 -97 -128 -210 0 -90 25 -150 79 -186 68
-44 174 -41 236 8 84 66 89 279 7 351 -44 40 -131 56 -194 37z m122 -76 c42
-25 60 -64 60 -129 0 -68 -20 -115 -59 -138 -59 -35 -137 -12 -166 49 -19 41
-19 127 0 168 29 61 106 84 165 50z"/>
<path d="M13250 13099 c-14 -5 -35 -20 -47 -31 l-23 -21 0 26 c0 24 -4 27 -35
27 l-35 0 0 -210 0 -210 35 0 35 0 0 123 c0 141 10 188 47 217 34 26 84 26
109 -1 17 -18 19 -40 22 -180 l3 -159 35 0 34 0 0 141 c0 84 5 149 11 162 29
56 96 74 140 38 22 -18 23 -26 27 -180 l4 -161 29 0 29 0 0 179 c0 178 0 180
-25 210 -46 54 -137 51 -197 -6 l-26 -25 -29 31 c-31 35 -98 49 -143 30z"/>
<path d="M13914 13096 c-17 -8 -39 -24 -48 -37 l-16 -23 0 32 c0 30 -2 32 -35
32 l-35 0 0 -290 0 -290 35 0 35 0 0 107 0 107 29 -28 c42 -40 102 -45 161
-14 84 45 123 171 89 291 -27 97 -129 150 -215 113z m97 -72 c80 -41 79 -228
-2 -269 -40 -21 -82 -19 -113 6 -36 28 -48 61 -47 132 0 115 76 176 162 131z"/>
<path d="M14345 13103 c-53 -14 -87 -38 -106 -75 -11 -22 -19 -41 -17 -43 2
-1 17 -5 34 -8 26 -5 33 -2 44 17 27 52 133 64 175 21 25 -24 33 -59 16 -69
-4 -3 -49 -12 -99 -20 -106 -17 -146 -35 -167 -76 -26 -50 -19 -95 19 -138 33
-36 37 -37 103 -37 53 0 77 5 106 23 47 27 57 28 57 2 0 -17 7 -20 40 -20 38
0 39 1 30 26 -6 14 -10 86 -10 160 0 147 -11 191 -53 218 -25 17 -136 29 -172
19z m155 -248 c0 -92 -127 -151 -197 -91 -24 21 -26 26 -15 50 13 30 18 31
205 65 4 0 7 -10 7 -24z"/>
<path d="M14743 13099 c-48 -14 -83 -62 -83 -113 0 -76 24 -94 192 -140 71
-20 85 -47 44 -83 -50 -43 -158 -22 -172 33 -6 22 -10 24 -38 18 -17 -3 -33
-8 -35 -10 -10 -9 14 -61 43 -90 58 -58 196 -56 257 5 38 39 48 95 23 141 -19
36 -56 53 -191 89 -55 15 -71 43 -43 71 39 39 160 19 160 -27 0 -11 6 -14 23
-9 12 3 28 6 36 6 18 0 6 48 -21 77 -34 36 -126 52 -195 32z"/>
<path d="M15143 13099 c-48 -14 -83 -62 -83 -113 0 -76 24 -94 192 -140 71
-20 85 -47 44 -83 -50 -43 -158 -22 -172 33 -6 22 -10 24 -38 18 -17 -3 -33
-8 -35 -10 -10 -9 14 -61 43 -90 58 -58 196 -56 257 5 38 39 48 95 23 141 -19
36 -56 53 -191 89 -55 15 -71 43 -43 71 39 39 160 19 160 -27 0 -11 6 -14 23
-9 12 3 28 6 36 6 18 0 6 48 -21 77 -34 36 -126 52 -195 32z"/>
<path d="M5330 12940 c0 -212 15 -248 112 -265 51 -10 92 2 128 35 l30 28 0
-29 c0 -26 3 -29 35 -29 l35 0 0 210 0 210 -35 0 -35 0 0 -122 c0 -151 -10
-192 -53 -218 -37 -23 -84 -25 -109 -6 -30 23 -38 64 -38 207 l0 139 -35 0
-35 0 0 -160z"/>
<path d="M6400 12890 l0 -210 35 0 35 0 0 210 0 210 -35 0 -35 0 0 -210z"/>
<path d="M6800 12890 l0 -210 35 0 35 0 0 210 0 210 -35 0 -35 0 0 -210z"/>
<path d="M8530 12940 c0 -212 15 -248 112 -265 51 -10 92 2 128 35 l30 28 0
-29 c0 -26 3 -29 35 -29 l35 0 0 210 0 210 -35 0 -35 0 0 -122 c0 -151 -10
-192 -53 -218 -37 -23 -84 -25 -109 -6 -30 23 -38 64 -38 207 l0 139 -35 0
-35 0 0 -160z"/>
<path d="M8980 12890 l0 -210 35 0 35 0 0 210 0 210 -35 0 -35 0 0 -210z"/>
<path d="M10460 13091 c0 -4 34 -99 76 -210 71 -188 75 -204 64 -234 -18 -45
-46 -67 -86 -67 -32 0 -34 -2 -28 -27 9 -37 22 -45 63 -39 40 6 67 28 91 76
15 30 190 496 190 506 0 2 -15 4 -34 4 l-34 0 -58 -165 c-40 -110 -61 -159
-66 -147 -4 9 -30 83 -59 165 l-51 147 -34 0 c-19 0 -34 -4 -34 -9z"/>
<path d="M11340 12940 c0 -212 15 -248 112 -265 51 -10 92 2 128 35 l30 28 0
-29 c0 -26 3 -29 35 -29 l35 0 0 210 0 210 -35 0 -35 0 0 -122 c0 -151 -10
-192 -53 -218 -37 -23 -84 -25 -109 -6 -30 23 -38 64 -38 207 l0 139 -35 0
-35 0 0 -160z"/>
<path d="M11645 11344 c-1771 -375 -3227 -685 -3235 -687 -8 -3 1791 -5 3999
-6 2208 0 4012 1 4010 3 -97 94 -1537 1376 -1544 1375 -5 -1 -1459 -309 -3230
-685z"/>
<path d="M15780 9919 c-360 -401 -669 -747 -687 -768 l-32 -38 685 -3234 c376
-1779 686 -3238 688 -3244 3 -5 5 1796 5 4003 1 2206 0 4012 -1 4012 -2 0
-298 -329 -658 -731z"/>
<path d="M16452 10641 c2 -6 1397 -1261 1508 -1357 14 -11 510 91 3250 671
1779 377 3240 687 3245 689 6 3 -1794 5 -3998 5 -2212 1 -4007 -3 -4005 -8z"/>
<path d="M36410 8570 l0 -100 100 0 100 0 0 100 0 100 -100 0 -100 0 0 -100z"/>
<path d="M36750 8570 l0 -100 100 0 100 0 0 100 0 100 -100 0 -100 0 0 -100z"/>
<path d="M30635 8375 c-188 -42 -329 -171 -392 -359 -25 -73 -27 -96 -28 -226
0 -126 3 -154 23 -215 37 -110 80 -180 148 -245 115 -107 271 -158 454 -147
154 9 331 71 423 147 l37 31 0 235 0 234 -255 0 -255 0 0 -100 0 -100 135 0
135 0 0 -75 0 -75 -46 -30 c-75 -47 -139 -65 -234 -65 -102 1 -157 22 -220 85
-57 57 -89 131 -103 240 -13 106 0 220 33 298 96 224 448 244 539 32 20 -47
25 -51 49 -46 15 3 56 10 92 16 116 19 113 17 106 51 -10 53 -56 137 -102 188
-106 118 -335 171 -539 126z"/>
<path d="M17680 7785 l0 -585 445 0 445 0 0 100 0 100 -330 0 -330 0 0 155 0
155 295 0 295 0 0 100 0 100 -295 0 -295 0 0 130 0 130 315 0 315 0 0 100 0
100 -430 0 -430 0 0 -585z"/>
<path d="M21120 8270 l0 -100 110 0 110 0 0 100 0 100 -110 0 -110 0 0 -100z"/>
<path d="M22020 7785 l0 -585 120 0 120 0 0 178 1 177 93 98 93 98 158 -271
c87 -150 163 -274 170 -276 6 -3 75 -3 154 -2 l142 3 -226 348 c-124 192 -227
353 -228 357 -1 5 96 110 216 234 l219 226 -160 0 -159 0 -234 -256 -234 -256
-3 256 -2 256 -120 0 -120 0 0 -585z"/>
<path d="M26540 7785 l0 -585 110 0 110 0 0 585 0 585 -110 0 -110 0 0 -585z"/>
<path d="M26990 8270 l0 -100 110 0 110 0 0 100 0 100 -110 0 -110 0 0 -100z"/>
<path d="M31510 8270 l0 -100 110 0 110 0 0 100 0 100 -110 0 -110 0 0 -100z"/>
<path d="M31960 8270 l0 -100 110 0 110 0 0 100 0 100 -110 0 -110 0 0 -100z"/>
<path d="M32970 8165 l0 -205 -52 40 c-199 152 -475 43 -532 -209 -22 -97 -21
-249 3 -334 73 -264 357 -363 543 -189 l48 45 0 -57 0 -56 105 0 105 0 0 585
0 585 -110 0 -110 0 0 -205z m-97 -294 c24 -15 45 -41 64 -79 25 -51 28 -67
28 -162 0 -126 -18 -182 -75 -234 -87 -79 -205 -53 -262 58 -27 51 -38 231
-18 301 15 52 62 112 104 131 42 19 115 12 159 -15z"/>
<path d="M33410 8270 l0 -100 110 0 110 0 0 100 0 100 -110 0 -110 0 0 -100z"/>
<path d="M34410 8165 l0 -205 -52 40 c-199 152 -475 43 -532 -209 -22 -97 -21
-249 3 -334 73 -264 357 -363 543 -189 l48 45 0 -57 0 -56 105 0 105 0 0 585
0 585 -110 0 -110 0 0 -205z m-97 -294 c24 -15 45 -41 64 -79 25 -51 28 -67
28 -162 0 -126 -18 -182 -75 -234 -87 -79 -205 -53 -262 58 -27 51 -38 231
-18 301 15 52 62 112 104 131 42 19 115 12 159 -15z"/>
<path d="M36203 7958 c3 -264 9 -435 17 -473 41 -201 195 -305 455 -305 225 0
369 77 425 229 27 70 39 284 40 684 l0 277 -119 0 -119 0 -4 -422 c-4 -466 -4
-467 -67 -521 -86 -72 -259 -60 -334 22 -53 59 -57 93 -57 531 l0 390 -121 0
-121 0 5 -412z"/>
<path d="M37390 7785 l0 -585 109 0 110 0 3 278 c3 272 3 278 28 327 19 38 36
56 70 73 83 43 181 15 207 -59 8 -23 12 -127 12 -326 l1 -293 116 0 116 0 -4
328 c-4 273 -8 334 -22 371 -25 68 -60 107 -123 138 -50 24 -70 28 -143 28
-99 0 -152 -20 -219 -80 l-41 -37 0 211 0 211 -110 0 -110 0 0 -585z"/>
<path d="M38380 8270 l0 -100 110 0 110 0 0 100 0 100 -110 0 -110 0 0 -100z"/>
<path d="M20688 8276 l-107 -61 -1 -82 0 -83 -55 0 -55 0 0 -85 0 -85 54 0 55
0 3 -282 c3 -264 4 -286 24 -323 13 -26 37 -49 65 -65 38 -22 56 -25 134 -25
50 0 107 6 128 14 l39 13 -7 87 c-4 47 -9 87 -10 89 -2 2 -21 -2 -43 -9 -52
-15 -90 -5 -102 27 -6 14 -10 126 -10 250 l0 224 80 0 80 0 0 85 0 85 -80 0
-79 0 -3 144 -3 143 -107 -61z"/>
<path d="M24308 8276 l-107 -61 -1 -82 0 -83 -55 0 -55 0 0 -85 0 -85 54 0 55
0 3 -282 c3 -264 4 -286 24 -323 13 -26 37 -49 65 -65 38 -22 56 -25 134 -25
50 0 107 6 128 14 l39 13 -7 87 c-4 47 -9 87 -10 89 -2 2 -21 -2 -43 -9 -52
-15 -90 -5 -102 27 -6 14 -10 126 -10 250 l0 224 80 0 80 0 0 85 0 85 -80 0
-79 0 -3 144 -3 143 -107 -61z"/>
<path d="M28468 8276 l-107 -61 -1 -82 0 -83 -55 0 -55 0 0 -85 0 -85 54 0 55
0 3 -282 c3 -264 4 -286 24 -323 13 -26 37 -49 65 -65 38 -22 56 -25 134 -25
50 0 107 6 128 14 l39 13 -7 87 c-4 47 -9 87 -10 89 -2 2 -21 -2 -43 -9 -52
-15 -90 -5 -102 27 -6 14 -10 126 -10 250 l0 224 80 0 80 0 0 85 0 85 -80 0
-79 0 -3 144 -3 143 -107 -61z"/>
<path d="M18953 8050 c-83 -27 -171 -107 -213 -193 -54 -113 -64 -295 -21
-419 56 -162 169 -245 351 -255 141 -9 253 33 324 120 31 38 79 127 72 134 -2
3 -200 33 -214 33 -4 0 -14 -16 -21 -35 -48 -134 -252 -101 -296 48 -8 28 -15
57 -15 64 0 10 55 13 281 13 l282 0 -6 93 c-3 50 -13 115 -21 142 -36 117
-124 214 -226 251 -74 26 -204 28 -277 4z m194 -161 c58 -22 95 -73 108 -146
l7 -43 -166 0 -166 0 0 35 c0 64 50 135 110 158 25 9 77 8 107 -4z"/>
<path d="M19853 8060 c-95 -20 -174 -75 -210 -144 -9 -17 -18 -58 -21 -93 -4
-54 -1 -70 23 -119 42 -86 121 -127 355 -184 47 -11 97 -26 113 -32 51 -20 49
-96 -5 -124 -42 -22 -133 -29 -185 -15 -42 11 -103 68 -103 96 0 7 -4 16 -9
19 -10 7 -210 -20 -219 -28 -12 -13 45 -110 90 -152 85 -79 194 -111 351 -101
114 7 195 35 255 90 64 60 86 108 86 192 1 59 -3 77 -27 117 -43 74 -120 111
-337 164 -145 36 -174 51 -178 91 -4 43 29 64 112 70 97 8 146 -15 191 -91 10
-18 26 -17 182 9 l32 6 -16 47 c-22 63 -102 143 -168 166 -58 21 -246 30 -312
16z"/>
<path d="M24913 8060 c-95 -20 -174 -75 -210 -144 -9 -17 -18 -58 -21 -93 -4
-54 -1 -70 23 -119 42 -86 121 -127 355 -184 47 -11 97 -26 113 -32 51 -20 49
-96 -5 -124 -42 -22 -133 -29 -185 -15 -42 11 -103 68 -103 96 0 7 -4 16 -9
19 -10 7 -210 -20 -219 -28 -12 -13 45 -110 90 -152 85 -79 194 -111 351 -101
114 7 195 35 255 90 64 60 86 108 86 192 1 59 -3 77 -27 117 -43 74 -120 111
-337 164 -145 36 -174 51 -178 91 -4 43 29 64 112 70 97 8 146 -15 191 -91 10
-18 26 -17 182 9 l32 6 -16 47 c-22 63 -102 143 -168 166 -58 21 -246 30 -312
16z"/>
<path d="M25823 8050 c-83 -27 -171 -107 -213 -193 -54 -113 -64 -295 -21
-419 56 -162 169 -245 351 -255 141 -9 253 33 324 120 31 38 79 127 72 134 -2
3 -200 33 -214 33 -4 0 -14 -16 -21 -35 -48 -134 -252 -101 -296 48 -8 28 -15
57 -15 64 0 10 55 13 281 13 l282 0 -6 93 c-3 50 -13 115 -21 142 -36 117
-124 214 -226 251 -74 26 -204 28 -277 4z m194 -161 c58 -22 95 -73 108 -146
l7 -43 -166 0 -166 0 0 35 c0 64 50 135 110 158 25 9 77 8 107 -4z"/>
<path d="M27623 8060 c-95 -20 -174 -75 -210 -144 -9 -17 -18 -58 -21 -93 -4
-54 -1 -70 23 -119 42 -86 121 -127 355 -184 47 -11 97 -26 113 -32 51 -20 49
-96 -5 -124 -42 -22 -133 -29 -185 -15 -42 11 -103 68 -103 96 0 7 -4 16 -9
19 -10 7 -210 -20 -219 -28 -12 -13 45 -110 90 -152 85 -79 194 -111 351 -101
114 7 195 35 255 90 64 60 86 108 86 192 1 59 -3 77 -27 117 -43 74 -120 111
-337 164 -145 36 -174 51 -178 91 -4 43 29 64 112 70 97 8 146 -15 191 -91 10
-18 26 -17 182 9 l32 6 -16 47 c-22 63 -102 143 -168 166 -58 21 -246 30 -312
16z"/>
<path d="M29083 8050 c-83 -27 -171 -107 -213 -193 -54 -113 -64 -295 -21
-419 56 -162 169 -245 351 -255 141 -9 253 33 324 120 31 38 79 127 72 134 -2
3 -200 33 -214 33 -4 0 -14 -16 -21 -35 -48 -134 -252 -101 -296 48 -8 28 -15
57 -15 64 0 10 55 13 281 13 l282 0 -6 93 c-3 50 -13 115 -21 142 -36 117
-124 214 -226 251 -74 26 -204 28 -277 4z m194 -161 c58 -22 95 -73 108 -146
l7 -43 -166 0 -166 0 0 35 c0 64 50 135 110 158 25 9 77 8 107 -4z"/>
<path d="M35043 8050 c-83 -27 -171 -107 -213 -193 -54 -113 -64 -295 -21
-419 56 -162 169 -245 351 -255 141 -9 253 33 324 120 31 38 79 127 72 134 -2
3 -200 33 -214 33 -4 0 -14 -16 -21 -35 -48 -134 -252 -101 -296 48 -8 28 -15
57 -15 64 0 10 55 13 281 13 l282 0 -6 93 c-3 50 -13 115 -21 142 -36 117
-124 214 -226 251 -74 26 -204 28 -277 4z m194 -161 c58 -22 95 -73 108 -146
l7 -43 -166 0 -166 0 0 35 c0 64 50 135 110 158 25 9 77 8 107 -4z"/>
<path d="M39215 8057 c-59 -20 -84 -35 -137 -85 l-48 -45 0 62 0 61 -105 0
-105 0 0 -425 0 -425 114 0 114 0 4 278 c3 266 4 279 26 324 55 111 209 131
267 35 19 -30 20 -55 23 -334 l3 -303 115 0 114 0 0 278 c-1 438 -16 495 -149
562 -55 28 -177 36 -236 17z"/>
<path d="M40033 8056 c-59 -19 -104 -49 -152 -101 -71 -77 -101 -173 -101
-323 0 -156 42 -266 135 -350 121 -111 300 -109 425 4 l43 39 -5 -100 c-3 -55
-11 -113 -18 -128 -19 -38 -62 -59 -136 -65 -81 -6 -130 10 -150 51 -9 18 -18
33 -19 35 -7 8 -240 31 -247 24 -15 -15 11 -116 40 -157 63 -90 188 -130 382
-122 147 6 215 30 281 97 84 85 83 79 87 618 l3 472 -105 0 -106 0 0 -53 0
-54 -42 40 c-23 22 -62 49 -87 60 -58 25 -170 32 -228 13z m255 -189 c79 -52
115 -212 77 -342 -44 -152 -192 -203 -291 -101 -49 51 -64 102 -64 214 0 133
41 218 120 251 40 17 115 7 158 -22z"/>
<path d="M21120 7625 l0 -425 110 0 110 0 0 425 0 425 -110 0 -110 0 0 -425z"/>
<path d="M23182 7718 c3 -325 4 -334 27 -386 78 -174 328 -203 490 -57 l41 37
0 -56 0 -56 105 0 105 0 0 425 0 425 -109 0 -108 0 -5 -278 c-4 -260 -6 -282
-26 -323 -31 -63 -81 -94 -153 -94 -68 0 -108 24 -126 76 -8 23 -12 127 -12
327 l-1 292 -116 0 -116 0 4 -332z"/>
<path d="M26990 7625 l0 -425 110 0 110 0 0 425 0 425 -110 0 -110 0 0 -425z"/>
<path d="M31510 7625 l0 -425 110 0 110 0 0 425 0 425 -110 0 -110 0 0 -425z"/>
<path d="M31960 7625 l0 -425 110 0 110 0 0 425 0 425 -110 0 -110 0 0 -425z"/>
<path d="M33410 7625 l0 -425 110 0 110 0 0 425 0 425 -110 0 -110 0 0 -425z"/>
<path d="M38380 7625 l0 -425 110 0 110 0 0 425 0 425 -110 0 -110 0 0 -425z"/>
<path d="M21206 6139 c-81 -19 -126 -74 -126 -155 0 -40 5 -51 38 -84 37 -37
77 -54 221 -90 24 -7 57 -25 74 -41 24 -25 28 -35 23 -61 -8 -40 -23 -58 -63
-75 -98 -41 -222 11 -240 99 -5 24 -10 28 -41 28 l-35 0 6 -41 c8 -59 47 -113
104 -140 38 -19 64 -24 128 -23 132 0 204 54 213 158 3 41 -1 58 -20 85 -32
48 -65 65 -193 100 -113 30 -145 51 -145 93 0 59 56 92 148 86 58 -4 68 -8 93
-36 16 -18 29 -39 29 -47 0 -10 11 -15 35 -15 29 0 35 4 35 21 0 52 -57 114
-124 134 -55 17 -101 18 -160 4z"/>
<path d="M23797 6139 c-128 -30 -203 -141 -201 -299 2 -179 109 -284 289 -284
67 0 90 4 140 27 95 45 95 44 95 169 l0 108 -120 0 -120 0 0 -35 0 -35 85 0
86 0 -3 -57 -3 -58 -54 -27 c-91 -47 -196 -33 -262 33 -72 72 -80 224 -16 320
69 105 265 104 314 -1 15 -33 22 -38 43 -33 14 3 29 9 34 14 14 12 -23 86 -56
114 -55 47 -162 65 -251 44z"/>
<path d="M17740 5850 l0 -290 215 0 215 0 0 35 0 35 -175 0 -175 0 0 100 0
100 155 0 155 0 0 35 0 35 -155 0 -155 0 0 85 0 85 170 0 170 0 0 35 0 35
-210 0 -210 0 0 -290z"/>
<path d="M25120 6034 l0 -106 -30 26 c-58 48 -151 43 -203 -11 -63 -66 -77
-203 -29 -294 51 -98 164 -129 233 -63 l29 28 0 -27 c0 -24 4 -27 35 -27 l35
0 0 290 0 290 -35 0 -35 0 0 -106z m-60 -129 c47 -24 63 -66 58 -153 -3 -69
-6 -76 -36 -103 -37 -34 -79 -38 -123 -12 -38 23 -59 69 -59 132 0 121 72 182
160 136z"/>
<path d="M26472 6113 c-42 -105 -212 -546 -212 -549 0 -2 17 -4 39 -4 l39 0
32 90 33 91 120 -3 120 -3 33 -85 32 -85 41 -3 c23 -2 41 0 41 5 0 4 -52 135
-117 290 l-116 283 -37 0 c-32 0 -39 -4 -48 -27z m93 -173 c21 -58 40 -111 42
-117 4 -10 -17 -13 -87 -13 -84 0 -91 2 -85 18 4 9 24 65 44 123 20 59 39 104
42 100 3 -3 23 -53 44 -111z"/>
<path d="M18708 6102 c-25 -15 -28 -23 -28 -69 0 -52 0 -53 -30 -53 -28 0 -30
-3 -30 -35 0 -32 2 -35 30 -35 l30 0 0 -158 c0 -185 4 -195 88 -196 46 -1 47
0 50 31 3 29 1 32 -30 35 l-33 3 -3 143 -3 142 36 0 c33 0 35 2 35 35 0 33 -2
35 -35 35 l-35 0 0 70 c0 39 -3 70 -7 70 -5 0 -20 -8 -35 -18z"/>
<path d="M29158 6102 c-25 -15 -28 -23 -28 -69 0 -52 0 -53 -30 -53 -28 0 -30
-3 -30 -35 0 -32 2 -35 30 -35 l30 0 0 -158 c0 -185 4 -195 88 -196 46 -1 47
0 50 31 3 29 1 32 -30 35 l-33 3 -3 143 -3 142 36 0 c33 0 35 2 35 35 0 33 -2
35 -35 35 l-35 0 0 70 c0 39 -3 70 -7 70 -5 0 -20 -8 -35 -18z"/>
<path d="M18333 5979 c-48 -14 -83 -62 -83 -113 0 -76 24 -94 192 -140 71 -20
85 -47 44 -83 -50 -43 -158 -22 -172 33 -6 22 -10 24 -38 18 -17 -3 -33 -8
-35 -10 -10 -9 14 -61 43 -90 58 -58 196 -56 257 5 38 39 48 95 23 141 -19 36
-56 53 -191 89 -55 15 -71 43 -43 71 39 39 160 19 160 -27 0 -11 6 -14 23 -9
12 3 28 6 36 6 18 0 6 48 -21 77 -34 36 -126 52 -195 32z"/>
<path d="M18998 5980 c-84 -25 -128 -97 -128 -210 0 -90 25 -150 79 -186 68
-44 174 -41 236 8 84 66 89 279 7 351 -44 40 -131 56 -194 37z m122 -76 c42
-25 60 -64 60 -129 0 -68 -20 -115 -59 -138 -59 -35 -137 -12 -166 49 -19 41
-19 127 0 168 29 61 106 84 165 50z"/>
<path d="M19470 5979 c-14 -5 -35 -20 -47 -31 l-23 -21 0 26 c0 24 -4 27 -35
27 l-35 0 0 -210 0 -210 35 0 35 0 0 123 c0 141 10 188 47 217 33 26 93 26
124 1 23 -19 24 -25 27 -180 l3 -161 35 0 34 0 0 160 c0 175 -9 216 -53 245
-31 20 -114 28 -147 14z"/>
<path d="M20065 5983 c-53 -14 -87 -38 -106 -75 -11 -22 -19 -41 -17 -43 2 -1
17 -5 34 -8 26 -5 33 -2 44 17 27 52 133 64 175 21 25 -24 33 -59 16 -69 -4
-3 -49 -12 -99 -20 -106 -17 -146 -35 -167 -76 -26 -50 -19 -95 19 -138 33
-36 37 -37 103 -37 53 0 77 5 106 23 47 27 57 28 57 2 0 -17 7 -20 40 -20 38
0 39 1 30 26 -6 14 -10 86 -10 160 0 147 -11 191 -53 218 -25 17 -136 29 -172
19z m155 -248 c0 -92 -127 -151 -197 -91 -24 21 -26 26 -15 50 13 30 18 31
205 65 4 0 7 -10 7 -24z"/>
<path d="M20540 5979 c-14 -5 -35 -20 -47 -31 l-23 -21 0 26 c0 24 -4 27 -35
27 l-35 0 0 -210 0 -210 35 0 35 0 0 123 c0 141 10 188 47 217 33 26 93 26
124 1 23 -19 24 -25 27 -180 l3 -161 35 0 34 0 0 160 c0 175 -9 216 -53 245
-31 20 -114 28 -147 14z"/>
<path d="M21706 5976 c-53 -20 -92 -60 -111 -114 -46 -136 12 -275 126 -302
95 -23 183 9 220 79 10 19 18 36 16 37 -1 1 -19 4 -39 8 -30 5 -37 3 -42 -12
-8 -25 -58 -52 -98 -52 -45 0 -96 33 -114 75 -8 19 -14 39 -14 45 0 6 55 10
155 10 l155 0 0 43 c0 60 -40 139 -83 166 -46 28 -120 36 -171 17z m149 -87
c13 -13 26 -34 30 -46 6 -23 6 -23 -109 -23 -124 0 -131 3 -106 50 29 54 140
65 185 19z"/>
<path d="M22180 5979 c-14 -5 -35 -20 -47 -31 l-23 -21 0 26 c0 24 -4 27 -35
27 l-35 0 0 -210 0 -210 35 0 35 0 0 123 c0 141 10 188 47 217 33 26 93 26
124 1 23 -19 24 -25 27 -180 l3 -161 35 0 34 0 0 160 c0 175 -9 216 -53 245
-31 20 -114 28 -147 14z"/>
<path d="M22778 5980 c-84 -25 -128 -97 -128 -210 0 -90 25 -150 79 -186 68
-44 174 -41 236 8 84 66 89 279 7 351 -44 40 -131 56 -194 37z m122 -76 c42
-25 60 -64 60 -129 0 -68 -20 -115 -59 -138 -59 -35 -137 -12 -166 49 -19 41
-19 127 0 168 29 61 106 84 165 50z"/>
<path d="M23211 5964 c-30 -25 -31 -25 -31 -5 0 17 -6 21 -35 21 l-35 0 0
-210 0 -210 35 0 35 0 0 123 c1 193 23 245 100 233 33 -5 37 -3 47 24 10 27 9
29 -20 39 -45 16 -62 14 -96 -15z"/>
<path d="M25396 5976 c-53 -20 -92 -60 -111 -114 -46 -136 12 -275 126 -302
95 -23 183 9 220 79 10 19 18 36 16 37 -1 1 -19 4 -39 8 -30 5 -37 3 -42 -12
-8 -25 -58 -52 -98 -52 -45 0 -96 33 -114 75 -8 19 -14 39 -14 45 0 6 55 10
155 10 l155 0 0 43 c0 60 -40 139 -83 166 -46 28 -120 36 -171 17z m149 -87
c13 -13 26 -34 30 -46 6 -23 6 -23 -109 -23 -124 0 -131 3 -106 50 29 54 140
65 185 19z"/>
<path d="M25813 5979 c-48 -14 -83 -62 -83 -113 0 -76 24 -94 192 -140 71 -20
85 -47 44 -83 -50 -43 -158 -22 -172 33 -6 22 -10 24 -38 18 -17 -3 -33 -8
-35 -10 -10 -9 14 -61 43 -90 58 -58 196 -56 257 5 38 39 48 95 23 141 -19 36
-56 53 -191 89 -55 15 -71 43 -43 71 39 39 160 19 160 -27 0 -11 6 -14 23 -9
12 3 28 6 36 6 18 0 6 48 -21 77 -34 36 -126 52 -195 32z"/>
<path d="M26923 5979 c-48 -14 -83 -62 -83 -113 0 -76 24 -94 192 -140 71 -20
85 -47 44 -83 -50 -43 -158 -22 -172 33 -6 22 -10 24 -38 18 -17 -3 -33 -8
-35 -10 -10 -9 14 -61 43 -90 58 -58 196 -56 257 5 38 39 48 95 23 141 -19 36
-56 53 -191 89 -55 15 -71 43 -43 71 39 39 160 19 160 -27 0 -11 6 -14 23 -9
12 3 28 6 36 6 18 0 6 48 -21 77 -34 36 -126 52 -195 32z"/>
<path d="M27323 5979 c-48 -14 -83 -62 -83 -113 0 -76 24 -94 192 -140 71 -20
85 -47 44 -83 -50 -43 -158 -22 -172 33 -6 22 -10 24 -38 18 -17 -3 -33 -8
-35 -10 -10 -9 14 -61 43 -90 58 -58 196 -56 257 5 38 39 48 95 23 141 -19 36
-56 53 -191 89 -55 15 -71 43 -43 71 39 39 160 19 160 -27 0 -11 6 -14 23 -9
12 3 28 6 36 6 18 0 6 48 -21 77 -34 36 -126 52 -195 32z"/>
<path d="M27758 5980 c-84 -25 -128 -97 -128 -210 0 -90 25 -150 79 -186 68
-44 174 -41 236 8 84 66 89 279 7 351 -44 40 -131 56 -194 37z m122 -76 c42
-25 60 -64 60 -129 0 -68 -20 -115 -59 -138 -59 -35 -137 -12 -166 49 -19 41
-19 127 0 168 29 61 106 84 165 50z"/>
<path d="M28192 5977 c-80 -25 -130 -126 -118 -239 7 -71 24 -105 70 -146 86
-75 242 -39 276 64 14 41 15 40 -27 49 -27 5 -33 3 -33 -10 0 -9 -13 -30 -29
-46 -64 -64 -169 -19 -186 79 -18 106 34 192 115 192 35 0 48 -6 75 -34 25
-27 37 -33 58 -29 36 7 35 33 -4 77 -45 52 -120 68 -197 43z"/>
<path d="M28785 5983 c-53 -14 -87 -38 -106 -75 -11 -22 -19 -41 -17 -43 2 -1
17 -5 34 -8 26 -5 33 -2 44 17 27 52 133 64 175 21 25 -24 33 -59 16 -69 -4
-3 -49 -12 -99 -20 -106 -17 -146 -35 -167 -76 -26 -50 -19 -95 19 -138 33
-36 37 -37 103 -37 53 0 77 5 106 23 47 27 57 28 57 2 0 -17 7 -20 40 -20 38
0 39 1 30 26 -6 14 -10 86 -10 160 0 147 -11 191 -53 218 -25 17 -136 29 -172
19z m155 -248 c0 -92 -127 -151 -197 -91 -24 21 -26 26 -15 50 13 30 18 31
205 65 4 0 7 -10 7 -24z"/>
<path d="M29618 5980 c-84 -25 -128 -97 -128 -210 0 -90 25 -150 79 -186 68
-44 174 -41 236 8 84 66 89 279 7 351 -44 40 -131 56 -194 37z m122 -76 c42
-25 60 -64 60 -129 0 -68 -20 -115 -59 -138 -59 -35 -137 -12 -166 49 -19 41
-19 127 0 168 29 61 106 84 165 50z"/>
<path d="M30100 5979 c-14 -5 -35 -20 -47 -31 l-23 -21 0 26 c0 24 -4 27 -35
27 l-35 0 0 -210 0 -210 35 0 35 0 0 123 c0 141 10 188 47 217 33 26 93 26
124 1 23 -19 24 -25 27 -180 l3 -161 35 0 34 0 0 160 c0 175 -9 216 -53 245
-31 20 -114 28 -147 14z"/>
<path d="M19780 5770 l0 -210 35 0 35 0 0 210 0 210 -35 0 -35 0 0 -210z"/>
<path d="M22490 5770 l0 -210 35 0 35 0 0 210 0 210 -35 0 -35 0 0 -210z"/>
<path d="M24220 5820 c0 -212 15 -248 112 -265 51 -10 92 2 128 35 l30 28 0
-29 c0 -26 3 -29 35 -29 l35 0 0 210 0 210 -35 0 -35 0 0 -122 c0 -151 -10
-192 -53 -218 -37 -23 -84 -25 -109 -6 -30 23 -38 64 -38 207 l0 139 -35 0
-35 0 0 -160z"/>
<path d="M24670 5770 l0 -210 35 0 35 0 0 210 0 210 -35 0 -35 0 0 -210z"/>
<path d="M28490 5770 l0 -210 35 0 35 0 0 210 0 210 -35 0 -35 0 0 -210z"/>
<path d="M29340 5770 l0 -210 35 0 35 0 0 210 0 210 -35 0 -35 0 0 -210z"/>
</g>
</svg>
